<?xml version="1.0" encoding="utf-8"?>
<!-- Generated by IcoMoon.io -->
<!DOCTYPE svg PUBLIC "-//W3C//DTD SVG 1.1//EN" "http://www.w3.org/Graphics/SVG/1.1/DTD/svg11.dtd">
<svg version="1.1" xmlns="http://www.w3.org/2000/svg" xmlns:xlink="http://www.w3.org/1999/xlink" width="32" height="32" viewBox="0 0 32 32">
<path d="M23.617 17.973c-0.436-0.311-0.891-0.518-1.358-0.622-0.276-0.053-0.564-0.073-0.862-0.057-0.281 0.016-0.549 0.052-0.803 0.11-0.191 0.053-0.382 0.122-0.573 0.206-0.568 0.251-1.059 0.566-1.462 0.948-0.382 0.403-0.698 0.894-0.948 1.462-0.084 0.191-0.153 0.383-0.206 0.573-0.058 0.254-0.095 0.522-0.11 0.803-0.016 0.297 0.004 0.585 0.057 0.862 0.104 0.467 0.311 0.922 0.622 1.358 0.122 0.17 0.253 0.325 0.392 0.465 0.627 0.626 1.432 0.959 2.357 1.066 0.279 0.032 0.566 0.052 0.829 0.14 0.16 0.053 0.286 0.128 0.378 0.219 0.208 0.206 0.238 0.503 0.078 0.851-0.098 0.214-0.241 0.42-0.405 0.589l-0.087 0.089c-0.123 0.122-0.2 0.2-0.22 0.22-0.098 0.099-0.191 0.192-0.283 0.286l-0.093 0.091c-0.329 0.331-0.659 0.66-0.989 0.989-0.711 0.713-1.424 1.424-2.137 2.136-0.234 0.234-0.469 0.469-0.703 0.703-0.108 0.108-0.221 0.199-0.337 0.275-0.056 0.038-0.109 0.070-0.162 0.099-0.613 0.309-1.295 0.185-1.851-0.371-0.169-0.169-0.332-0.332-0.495-0.495-0.945-0.945-1.89-1.891-2.837-2.835-0.268-0.268-0.535-0.534-0.803-0.8-0.191-0.19-0.396-0.37-0.611-0.533-0.179-0.135-0.362-0.236-0.546-0.304-0.661-0.229-1.294-0.063-1.708 0.414-0.119 0.15-0.219 0.327-0.293 0.529-0.107 0.289-0.144 0.608-0.184 0.918-0.153 1.173-0.806 2.138-1.749 2.583-0.234 0.114-0.484 0.197-0.747 0.243-0.248 0.044-0.498 0.053-0.745 0.032-0.832-0.042-1.546-0.409-2.141-1.018-0.052-0.052-0.066-0.065-0.078-0.078-0.609-0.594-0.976-1.309-1.018-2.141-0.021-0.247-0.012-0.497 0.032-0.745 0.047-0.263 0.129-0.513 0.243-0.747 0.444-0.943 1.41-1.596 2.583-1.749 0.309-0.040 0.628-0.077 0.918-0.184 0.217-0.080 0.405-0.189 0.562-0.32 0.454-0.411 0.612-1.020 0.401-1.636-0.087-0.23-0.188-0.413-0.323-0.592-0.163-0.215-0.343-0.42-0.533-0.611-0.266-0.267-0.532-0.534-0.798-0.801-0.841-0.843-1.683-1.684-2.523-2.524l-0.313-0.313c-0.163-0.163-0.327-0.327-0.477-0.477-0.575-0.575-0.698-1.257-0.389-1.869 0.029-0.053 0.061-0.105 0.096-0.158 0.078-0.12 0.169-0.233 0.277-0.341 0.234-0.234 0.468-0.469 0.703-0.703 0.712-0.713 1.423-1.426 2.136-2.137 0.329-0.33 0.658-0.661 0.989-0.989l0.091-0.092c0.093-0.093 0.187-0.185 0.281-0.278 0.025-0.025 0.103-0.103 0.225-0.226l0.089-0.087c0.168-0.164 0.375-0.306 0.589-0.405 0.348-0.16 0.645-0.13 0.851 0.078 0.092 0.091 0.166 0.217 0.219 0.377 0.087 0.263 0.108 0.55 0.14 0.829 0.107 0.925 0.44 1.73 1.066 2.357 0.14 0.14 0.295 0.271 0.465 0.393 0.436 0.311 0.891 0.518 1.358 0.623 0.276 0.053 0.564 0.073 0.862 0.057 0.281-0.016 0.549-0.053 0.803-0.11 0.191-0.053 0.382-0.122 0.573-0.206 0.568-0.251 1.059-0.566 1.462-0.948 0.382-0.403 0.697-0.894 0.948-1.462 0.084-0.191 0.153-0.383 0.206-0.573 0.057-0.254 0.095-0.522 0.11-0.803 0.016-0.297-0.004-0.585-0.057-0.862-0.104-0.467-0.311-0.922-0.623-1.358-0.122-0.17-0.252-0.325-0.393-0.465-0.627-0.626-1.432-0.959-2.357-1.066-0.279-0.032-0.566-0.053-0.829-0.14-0.16-0.053-0.286-0.128-0.377-0.219-0.208-0.206-0.238-0.503-0.078-0.851 0.098-0.214 0.241-0.42 0.405-0.589l0.087-0.089c0.123-0.122 0.2-0.2 0.22-0.22 0.098-0.099 0.191-0.192 0.283-0.286l0.092-0.091c0.329-0.331 0.659-0.66 0.989-0.989 0.711-0.713 1.424-1.424 2.137-2.136 0.234-0.234 0.469-0.469 0.703-0.703 0.108-0.108 0.221-0.199 0.337-0.275 0.056-0.038 0.109-0.070 0.162-0.099 0.613-0.309 1.295-0.185 1.851 0.371 0.169 0.169 0.332 0.332 0.495 0.495 0.945 0.945 1.89 1.891 2.837 2.835 0.268 0.268 0.535 0.534 0.802 0.8 0.191 0.19 0.396 0.37 0.611 0.533 0.179 0.135 0.362 0.236 0.546 0.304 0.661 0.229 1.294 0.063 1.708-0.414 0.119-0.15 0.219-0.327 0.293-0.529 0.107-0.289 0.144-0.608 0.184-0.917 0.153-1.173 0.806-2.138 1.749-2.583 0.234-0.114 0.484-0.196 0.747-0.243 0.248-0.044 0.498-0.053 0.745-0.032 0.832 0.042 1.546 0.409 2.141 1.018 0.052 0.052 0.066 0.065 0.078 0.078 0.609 0.594 0.976 1.309 1.018 2.141 0.021 0.247 0.012 0.497-0.032 0.745-0.047 0.263-0.129 0.513-0.243 0.747-0.444 0.943-1.41 1.596-2.583 1.749-0.309 0.040-0.628 0.077-0.918 0.184-0.217 0.080-0.405 0.189-0.562 0.32-0.454 0.411-0.612 1.020-0.401 1.636 0.087 0.23 0.188 0.413 0.323 0.592 0.163 0.215 0.343 0.42 0.533 0.611 0.266 0.267 0.532 0.534 0.798 0.801 0.946 0.948 1.892 1.893 2.837 2.838 0.163 0.163 0.327 0.327 0.477 0.477 0.575 0.575 0.698 1.257 0.389 1.869-0.029 0.053-0.061 0.105-0.096 0.158-0.078 0.12-0.169 0.233-0.277 0.341-0.234 0.234-0.468 0.469-0.703 0.703-0.712 0.713-1.423 1.426-2.136 2.137-0.329 0.33-0.658 0.661-0.989 0.989l-0.091 0.093c-0.093 0.093-0.187 0.185-0.281 0.278-0.025 0.025-0.102 0.103-0.225 0.226l-0.089 0.087c-0.168 0.164-0.375 0.306-0.589 0.405-0.348 0.16-0.645 0.13-0.851-0.078-0.092-0.091-0.166-0.218-0.219-0.378-0.087-0.263-0.108-0.55-0.14-0.829-0.107-0.925-0.44-1.73-1.066-2.357-0.14-0.14-0.295-0.272-0.465-0.393z" fill="#ffffff"></path>
</svg>
